<svg xmlns="http://www.w3.org/2000/svg" viewBox="0 0 61 61">
  <defs>
    <style>
      .cls-1 {
        fill: rgba(0,0,0,0.3);
      }

      .cls-2 {
        fill: rgba(255,255,255,0.6);
      }
    </style>
  </defs>
  <g id="组_19" data-name="组 19" transform="translate(-386 -943)">
    <circle id="椭圆_1" data-name="椭圆 1" class="cls-1" cx="30.5" cy="30.5" r="30.5" transform="translate(386 943)"/>
    <path id="联合_2" data-name="联合 2" class="cls-2" d="M-42.042,321.827l-17.165-10a3.636,3.636,0,0,1-1.314-4.938l7.121-12.433a3.612,3.612,0,0,1,3.12-1.814,3.577,3.577,0,0,1,1.8.488l4.844,2.825,5.521-9.638A4.6,4.6,0,0,1-34.129,284a4.57,4.57,0,0,1,2.3.62,4.647,4.647,0,0,1,1.682,6.308l-5.53,9.655,4.365,2.542A3.633,3.633,0,0,1-30,308.06L-37.12,320.5a3.616,3.616,0,0,1-3.12,1.823A3.623,3.623,0,0,1-42.042,321.827Zm-16.25-13.665a1.057,1.057,0,0,0,.381,1.438l17.166,9.993a1.02,1.02,0,0,0,.509.137,1.029,1.029,0,0,0,.89-.522l4.523-7.9-18.954-11.031Zm24.744.923,1.323-2.31a1.057,1.057,0,0,0-.376-1.437l-5.469-3.18a1.284,1.284,0,0,1-.466-1.747l6.158-10.759a2.065,2.065,0,0,0-.744-2.812,2,2,0,0,0-1.006-.274,2.027,2.027,0,0,0-1.754,1.022l-6.163,10.759a1.29,1.29,0,0,1-.783.6,1.275,1.275,0,0,1-.98-.132l-5.965-3.471a.964.964,0,0,0-.5-.141,1.029,1.029,0,0,0-.89.522l-1.332,2.325Z" transform="translate(460 670.713)"/>
  </g>
</svg>
