<svg xmlns="http://www.w3.org/2000/svg" viewBox="0 0 61 61">
  <defs>
    <style>
      .cls-1 {
        fill: rgba(0,0,0,0.1);
      }

      .cls-2 {
        fill: rgba(255,255,255,0.4);
      }
    </style>
  </defs>
  <g id="组_16" data-name="组 16" transform="translate(-386 -943)">
    <circle id="椭圆_1" data-name="椭圆 1" class="cls-1" cx="30.5" cy="30.5" r="30.5" transform="translate(386 943)"/>
    <path id="联合_1" data-name="联合 1" class="cls-2" d="M36.958,321.827l-17.166-10a3.637,3.637,0,0,1-1.314-4.938L25.6,294.455a3.612,3.612,0,0,1,3.119-1.814,3.574,3.574,0,0,1,1.8.488l4.845,2.825,5.521-9.638a4.6,4.6,0,1,1,7.964,4.613l-5.529,9.655,4.365,2.542A3.633,3.633,0,0,1,49,308.06L41.88,320.5a3.559,3.559,0,0,1-4.921,1.327Zm-16.25-13.665a1.056,1.056,0,0,0,.381,1.438l17.166,9.993a1.019,1.019,0,0,0,1.4-.385l4.523-7.9L25.223,300.281Zm24.744.923,1.323-2.31a1.058,1.058,0,0,0-.376-1.437l-5.469-3.18a1.284,1.284,0,0,1-.467-1.747l6.159-10.759a2.065,2.065,0,0,0-.744-2.812,2,2,0,0,0-1.006-.274,2.027,2.027,0,0,0-1.754,1.022l-6.163,10.759a1.29,1.29,0,0,1-.783.6,1.275,1.275,0,0,1-.98-.132l-5.965-3.471a.967.967,0,0,0-.506-.141,1.031,1.031,0,0,0-.89.522L26.5,298.054Z" transform="translate(381 670.713)"/>
  </g>
</svg>
